<svg width="32" height="32" viewBox="0 0 32 32" fill="none" xmlns="http://www.w3.org/2000/svg">
<circle cx="16" cy="16" r="16" fill="#0B0A0A" style="fill:#0B0A0A;fill:color(display-p3 0.0431 0.0392 0.0392);fill-opacity:1;"/>
<path d="M15.0187 0.0812607C12.9937 0.256262 11.5687 0.57501 10.05 1.18751C7.9625 2.02501 6.29375 3.13751 4.66875 4.75626C2.05625 7.37501 0.54375 10.4813 0.075 14.2C-0.025 15.0063 -0.025 17.0813 0.075 17.8875C0.54375 21.6063 2.05625 24.7125 4.66875 27.3313C7.2875 29.9438 10.3937 31.4563 14.1125 31.925C14.9187 32.025 16.9937 32.025 17.8 31.925C21.5187 31.4563 24.625 29.9438 27.2437 27.3313C29.8562 24.7125 31.3687 21.6063 31.8375 17.8875C31.9375 17.0813 31.9375 15.0063 31.8375 14.2C31.3687 10.4813 29.8562 7.37501 27.2437 4.75626C24.6812 2.20001 21.5875 0.662512 18.0562 0.200012C17.3125 0.106262 15.55 0.0375118 15.0187 0.0812607ZM19.3 5.54376C19.6687 5.62501 20.0937 5.78126 20.5187 5.98751C21.1 6.27501 21.2437 6.38751 21.7687 6.91251C22.7312 7.87501 23.125 8.81876 23.0687 9.98126C22.975 11.7125 21.9062 13.0375 19.5187 14.3625C18.8125 14.75 18.4312 14.8188 18.0937 14.6125C17.5 14.2375 17.5062 13.4375 18.1062 13.0563C19.8062 11.9813 20.3937 11.4688 20.7437 10.7563C20.95 10.35 20.9687 10.2625 20.9437 9.90626C20.9125 9.41251 20.7312 9.03126 20.35 8.65001C19.7687 8.06876 19.1625 7.83751 18.2437 7.84376C15.8187 7.86251 12.575 10.2375 10.9437 13.1813C9.99375 14.8875 9.6125 16.8063 9.925 18.3063C10.225 19.7375 11.2937 20.9 12.8125 21.425C13.7625 21.7563 15.1187 21.8438 16.1125 21.6375C17.1812 21.4188 18.3437 20.85 19.5 19.9938C20.25 19.4313 21.4812 18.175 22.2187 17.2313C22.9625 16.2688 23.1375 16.1 23.6125 15.875C23.9312 15.725 24.0625 15.7 24.5187 15.7C24.9562 15.7063 25.1125 15.7313 25.4062 15.8688C26.5812 16.4125 27.0687 17.775 26.4875 18.9188C26.15 19.5875 24.0125 21.8063 22.8312 22.725C21.5875 23.6938 20.2375 24.4625 18.925 24.95C16.75 25.7625 14.275 25.8125 12.1125 25.1C9.65 24.2875 7.7375 22.4875 6.9625 20.2563C5.48125 16 7.8875 10.4625 12.5812 7.32501C14.925 5.76251 17.3437 5.11876 19.3 5.54376Z" fill="white" style="fill:white;fill-opacity:1;"/>
</svg>
