<svg width="64" height="64" viewBox="0 0 64 64" fill="none" xmlns="http://www.w3.org/2000/svg">
<path d="M61.9553 39.4937C62.4853 38.5312 62.7953 37.4587 62.7953 36.2887C62.7953 33.4362 61.5278 30.8812 59.5253 29.1525C59.3278 28.9812 59.2878 28.6862 59.4453 28.4762C60.4478 27.14 61.0415 25.4812 61.0415 23.6825C61.0415 19.6525 58.0628 16.3212 54.1878 15.7637C53.879 15.72 53.6878 15.4075 53.7865 15.1125C54.0715 14.2562 54.2078 13.3325 54.164 12.37C53.9915 8.55999 50.9528 5.44249 47.1478 5.17624C46.0628 5.09999 45.0228 5.25624 44.0715 5.59624C43.7928 5.69499 43.494 5.52874 43.4215 5.24124C42.8003 2.77374 40.5703 0.944991 37.9103 0.937491C34.7665 0.928741 32.194 3.59624 32.194 6.74124V19.0725V6.63749C32.194 3.48874 29.6428 0.937491 26.494 0.937491C25.1353 0.937491 23.8878 1.41249 22.909 2.20749M58.9453 42.6712C57.7378 43.5012 56.3578 44.1337 54.9815 44.5475C54.6303 44.6525 54.5065 45.0875 54.754 45.36C56.0753 46.8175 57.7528 49.0125 57.7528 50.8312C57.7528 55.1087 54.2853 58.5775 50.0078 58.5775C49.2116 58.5777 48.4202 58.455 47.6615 58.2137C47.5434 58.1753 47.4153 58.1819 47.3018 58.2322C47.1883 58.2825 47.0974 58.373 47.0465 58.4862C45.8315 61.1762 43.1303 63.0512 39.9903 63.0625C35.7015 63.0762 32.194 59.4662 32.194 55.1787V44.9262V55.2925C32.194 58.2337 30.5603 60.7937 28.149 62.1125M44.619 35.58C46.179 35.6925 49.519 36.1375 50.1415 37.89M10.5515 10.4912C11.3978 7.74374 13.7678 5.66374 16.674 5.23874M3.47902 25.1287C3.39277 24.66 3.34777 24.1762 3.34777 23.6825C3.34777 20.8987 4.76902 18.4487 6.92527 17.015M2.70152 31.855C1.99402 33.1762 1.59277 34.685 1.59277 36.2887C1.59277 38.8637 3.09152 40.965 5.15777 42.4712M7.05777 49.0662C6.79652 49.6687 6.63527 50.2675 6.63527 50.8312C6.63527 54.6775 9.44027 57.87 13.1153 58.4737M19.8478 61.57C21.0219 62.4304 22.4157 62.9405 23.8678 63.0412" stroke="white" style="stroke:white;stroke-opacity:1;" stroke-width="1.875" stroke-miterlimit="10" stroke-linecap="round" stroke-linejoin="round"/>
<path d="M46.559 22.57C46.579 24.7225 44.564 25.0525 43.064 25" stroke="white" style="stroke:white;stroke-opacity:1;" stroke-width="1.875" stroke-miterlimit="10" stroke-linecap="round" stroke-linejoin="round"/>
<path d="M17.1104 62.6545C19.3188 62.6545 21.1091 60.8642 21.1091 58.6559C21.1091 56.4475 19.3188 54.6572 17.1104 54.6572C14.9021 54.6572 13.1118 56.4475 13.1118 58.6559C13.1118 60.8642 14.9021 62.6545 17.1104 62.6545Z" stroke="white" style="stroke:white;stroke-opacity:1;" stroke-width="1.875" stroke-miterlimit="10" stroke-linecap="round" stroke-linejoin="round"/>
<path d="M22.1878 23.8175L13.164 16.8862M21.029 38.515L11.634 43.3662M19.3365 30.6612L9.16528 29.2762M36.8853 19.95C37.9778 18.3475 40.0203 16.5487 43.6728 16.6025M27.0303 43.8525L19.1428 55.2125M27.6978 19.8762L22.4228 9.10748" stroke="white" style="stroke:white;stroke-opacity:1;" stroke-width="1.875" stroke-miterlimit="10" stroke-linecap="round" stroke-linejoin="round"/>
<path d="M32.1946 44.9266C39.334 44.9266 45.1216 39.139 45.1216 31.9996C45.1216 24.8602 39.334 19.0726 32.1946 19.0726C25.0552 19.0726 19.2676 24.8602 19.2676 31.9996C19.2676 39.139 25.0552 44.9266 32.1946 44.9266Z" stroke="white" style="stroke:white;stroke-opacity:1;" stroke-width="1.875" stroke-miterlimit="10" stroke-linecap="round" stroke-linejoin="round"/>
<path d="M32.1946 49.4452C32.1946 49.4452 37.7217 53.1626 41.4392 49.4452M50.3516 24.5864C50.3516 24.5864 53.3202 26.1912 50.4486 30.1072" stroke="white" style="stroke:white;stroke-opacity:1;" stroke-width="1.875" stroke-miterlimit="10" stroke-linecap="round" stroke-linejoin="round"/>
<path d="M38.2234 51.0434C38.6197 52.8459 39.8934 55.4559 43.9822 54.8909M48.1037 42.5024C48.1037 42.5024 44.7776 44.3671 47.0602 48.6195M54.2434 24.1734C54.8234 26.2709 52.7872 27.0309 51.6859 27.2846M25.6794 37.241L29.5583 27.0566C29.6376 26.8629 29.9119 26.8626 29.9916 27.0561L33.8352 37.241M26.8891 34.7045H32.6449M37.2101 26.7584V37.0882M32.1947 10.4399C32.1947 10.4399 38.8353 15.0099 42.0751 9.11923" stroke="white" style="stroke:white;stroke-opacity:1;" stroke-width="1.875" stroke-miterlimit="10" stroke-linecap="round" stroke-linejoin="round"/>
<path d="M37.5279 12.1256C37.5279 12.1256 38.7652 8.82575 36.613 7.19537M40.7983 10.7942C40.7983 10.7942 42.4174 12.6735 43.7544 12.2822M49.4962 37.0034C49.4962 37.0034 51.022 34.8574 52.3915 35.5422M52.1869 50.4725C52.1869 50.4725 52.4402 53.128 48.4203 53.0257M48.6415 15.217C48.6415 15.217 47.6447 18.1112 51.2842 19.4399" stroke="white" style="stroke:white;stroke-opacity:1;" stroke-width="1.875" stroke-miterlimit="10" stroke-linecap="round" stroke-linejoin="round"/>
<path d="M8.08041 49.1993C10.2888 49.1993 12.079 47.4091 12.079 45.2007C12.079 42.9923 10.2888 41.2021 8.08041 41.2021C5.87203 41.2021 4.08179 42.9923 4.08179 45.2007C4.08179 47.4091 5.87203 49.1993 8.08041 49.1993Z" stroke="white" style="stroke:white;stroke-opacity:1;" stroke-width="1.875" stroke-miterlimit="10" stroke-linecap="round" stroke-linejoin="round"/>
<path d="M5.20346 32.7355C7.41184 32.7355 9.20208 30.9452 9.20208 28.7368C9.20208 26.5285 7.41184 24.7382 5.20346 24.7382C2.99508 24.7382 1.20483 26.5285 1.20483 28.7368C1.20483 30.9452 2.99508 32.7355 5.20346 32.7355Z" stroke="white" style="stroke:white;stroke-opacity:1;" stroke-width="1.875" stroke-miterlimit="10" stroke-linecap="round" stroke-linejoin="round"/>
<path d="M9.99277 18.4494C12.2011 18.4494 13.9914 16.6591 13.9914 14.4507C13.9914 12.2424 12.2011 10.4521 9.99277 10.4521C7.78439 10.4521 5.99414 12.2424 5.99414 14.4507C5.99414 16.6591 7.78439 18.4494 9.99277 18.4494Z" stroke="white" style="stroke:white;stroke-opacity:1;" stroke-width="1.875" stroke-miterlimit="10" stroke-linecap="round" stroke-linejoin="round"/>
<path d="M20.6624 9.51462C22.8708 9.51462 24.6611 7.72437 24.6611 5.51599C24.6611 3.30761 22.8708 1.51736 20.6624 1.51736C18.4541 1.51736 16.6638 3.30761 16.6638 5.51599C16.6638 7.72437 18.4541 9.51462 20.6624 9.51462Z" stroke="white" style="stroke:white;stroke-opacity:1;" stroke-width="1.875" stroke-miterlimit="10" stroke-linecap="round" stroke-linejoin="round"/>
</svg>
