<svg width="24" height="24" viewBox="0 0 24 24" fill="none" xmlns="http://www.w3.org/2000/svg">
<path fill-rule="evenodd" clip-rule="evenodd" d="M11.2491 6.54999C11.3081 6.59068 11.3583 6.62749 11.4 6.65958V18.6506C11.1316 18.5019 10.8051 18.3424 10.4134 18.1836C9.03989 17.6266 6.87227 17.0797 3.60004 17.0176V4.80307C6.73715 4.86295 9.00002 5.44559 9.96448 5.88046C10.4802 6.11301 10.9981 6.37691 11.2491 6.54999ZM11.5633 20.2114L11.5638 20.2119L11.5639 20.212L11.5633 20.2114ZM11.5667 20.215L11.5663 20.2146L11.5641 20.2125L11.564 20.2124L11.5605 20.2089C11.5522 20.2009 11.5357 20.1856 11.5106 20.1638C11.4603 20.1204 11.3749 20.0515 11.2491 19.9649C10.9977 19.7919 10.5832 19.5474 9.96244 19.2956C8.72129 18.7923 6.64681 18.2568 3.39223 18.2145L3.38331 18.2142C3.1256 18.207 2.87652 18.1027 2.69105 17.9175C2.50565 17.732 2.39863 17.4797 2.40004 17.2127L2.40006 8.39999L2.40004 4.6003C2.39975 4.32784 2.51178 4.07125 2.70358 3.8852C2.79957 3.79189 2.91292 3.71946 3.03553 3.67101C3.15864 3.62242 3.29026 3.59847 3.42211 3.60007C6.79572 3.64325 9.01781 4.20054 10.4162 4.7687C11.1151 5.0527 11.6061 5.33854 11.9303 5.56201C11.9544 5.57869 11.9777 5.59502 12 5.61096C12.0224 5.59502 12.0456 5.57869 12.0698 5.56201C12.3939 5.33854 12.8849 5.0527 13.5839 4.7687C14.9822 4.20054 17.2043 3.64325 20.5779 3.60007C20.7098 3.59847 20.8414 3.62242 20.9645 3.67101C21.0871 3.71946 21.2005 3.79189 21.2965 3.8852C21.4883 4.07125 21.6003 4.32784 21.6 4.6003L21.6 8.39999L21.6 17.2127C21.6014 17.4797 21.4944 17.732 21.309 17.9175C21.1235 18.1027 20.8744 18.207 20.6167 18.2142L20.6078 18.2145C17.3532 18.2568 15.2788 18.7923 14.0376 19.2956C13.4168 19.5474 13.0023 19.7919 12.751 19.9649C12.6251 20.0515 12.5398 20.1204 12.4895 20.1638C12.4643 20.1856 12.4479 20.2009 12.4395 20.2089L12.436 20.2124L12.436 20.2125L12.4338 20.2146L12.4334 20.215C12.2826 20.3551 12.1322 20.3981 12 20.3943C11.8678 20.3981 11.7175 20.3551 11.5667 20.215ZM12.4368 20.2114L12.4362 20.212L12.4362 20.2119L12.4368 20.2114ZM13.5866 18.1836C13.1949 18.3424 12.8685 18.5019 12.6 18.6506V6.65958C12.6418 6.62749 12.6919 6.59068 12.7509 6.54999C13.002 6.37691 13.5198 6.11301 14.0356 5.88046C15 5.44559 17.2629 4.86295 20.4 4.80307V17.0176C17.1278 17.0797 14.9602 17.6266 13.5866 18.1836ZM4.634 10.9172C4.65764 10.5867 4.94475 10.3379 5.27528 10.3615C6.663 10.4608 8.03255 10.7355 9.35122 11.179C9.6653 11.2847 9.83427 11.6249 9.72862 11.939C9.62298 12.2531 9.28273 12.4221 8.96865 12.3164C7.74604 11.9052 6.47627 11.6505 5.18966 11.5585C4.85914 11.5348 4.61036 11.2477 4.634 10.9172ZM4.634 14.0495C4.65764 13.7189 4.94475 13.4701 5.27528 13.4938C6.663 13.5931 8.03255 13.8678 9.35122 14.3113C9.6653 14.4169 9.83427 14.7572 9.72862 15.0713C9.62298 15.3854 9.28273 15.5543 8.96865 15.4487C7.74604 15.0375 6.47627 14.7828 5.18966 14.6907C4.85914 14.6671 4.61036 14.38 4.634 14.0495ZM18.8143 11.5585C19.1448 11.5348 19.3936 11.2477 19.37 10.9172C19.3463 10.5866 19.0592 10.3379 18.7287 10.3615C17.341 10.4608 15.9714 10.7355 14.6527 11.179C14.3387 11.2847 14.1697 11.6249 14.2753 11.939C14.381 12.2531 14.7212 12.4221 15.0353 12.3164C16.2579 11.9052 17.5277 11.6505 18.8143 11.5585ZM19.37 14.0495C19.3936 14.3801 19.1448 14.6672 18.8143 14.6908C17.5277 14.7828 16.2579 15.0375 15.0353 15.4488C14.7212 15.5544 14.381 15.3854 14.2753 15.0714C14.1697 14.7573 14.3387 14.417 14.6527 14.3114C15.9714 13.8678 17.341 13.5931 18.7287 13.4939C19.0592 13.4702 19.3463 13.719 19.37 14.0495Z" fill="#606B85" style="fill:#606B85;fill:color(display-p3 0.3765 0.4196 0.5216);fill-opacity:1;"/>
</svg>
